<mxfile host="app.diagrams.net" modified="2021-08-25T05:48:37.485Z" agent="5.0 (Macintosh; Intel Mac OS X 10_15_7) AppleWebKit/537.36 (KHTML, like Gecko) Chrome/92.0.4515.159 Safari/537.36" etag="xlZGFw83LJZAFrfFrWPW" version="14.8.6" type="github">
  <diagram id="ncYJ88DiuqzMt-FRiveW" name="Page-1">
    <mxGraphModel dx="2004" dy="1081" grid="1" gridSize="10" guides="1" tooltips="1" connect="1" arrows="1" fold="1" page="1" pageScale="1" pageWidth="827" pageHeight="1169" math="0" shadow="0">
      <root>
        <mxCell id="0" />
        <mxCell id="1" parent="0" />
        <mxCell id="Q7UmeQ9gQ45WxCr1bM-f-13" value="送审" style="edgeStyle=none;rounded=0;orthogonalLoop=1;jettySize=auto;html=1;" edge="1" parent="1" source="Q7UmeQ9gQ45WxCr1bM-f-1" target="Q7UmeQ9gQ45WxCr1bM-f-12">
          <mxGeometry relative="1" as="geometry" />
        </mxCell>
        <mxCell id="Q7UmeQ9gQ45WxCr1bM-f-1" value="小说" style="rounded=1;whiteSpace=wrap;html=1;fillColor=#dae8fc;strokeColor=#6c8ebf;" vertex="1" parent="1">
          <mxGeometry x="310" y="555" width="120" height="60" as="geometry" />
        </mxCell>
        <mxCell id="Q7UmeQ9gQ45WxCr1bM-f-7" value="绑定" style="rounded=0;orthogonalLoop=1;jettySize=auto;html=1;entryX=0.5;entryY=0;entryDx=0;entryDy=0;" edge="1" parent="1" source="Q7UmeQ9gQ45WxCr1bM-f-2" target="Q7UmeQ9gQ45WxCr1bM-f-1">
          <mxGeometry relative="1" as="geometry" />
        </mxCell>
        <mxCell id="Q7UmeQ9gQ45WxCr1bM-f-2" value="账号1" style="ellipse;whiteSpace=wrap;html=1;fillColor=#ffe6cc;strokeColor=#d79b00;" vertex="1" parent="1">
          <mxGeometry x="60" y="330" width="120" height="80" as="geometry" />
        </mxCell>
        <mxCell id="Q7UmeQ9gQ45WxCr1bM-f-8" value="绑定" style="edgeStyle=none;rounded=0;orthogonalLoop=1;jettySize=auto;html=1;entryX=0.5;entryY=0;entryDx=0;entryDy=0;" edge="1" parent="1" source="Q7UmeQ9gQ45WxCr1bM-f-3" target="Q7UmeQ9gQ45WxCr1bM-f-1">
          <mxGeometry relative="1" as="geometry" />
        </mxCell>
        <mxCell id="Q7UmeQ9gQ45WxCr1bM-f-3" value="账号2" style="ellipse;whiteSpace=wrap;html=1;fillColor=#ffe6cc;strokeColor=#d79b00;" vertex="1" parent="1">
          <mxGeometry x="230" y="330" width="120" height="80" as="geometry" />
        </mxCell>
        <mxCell id="Q7UmeQ9gQ45WxCr1bM-f-10" value="绑定" style="edgeStyle=none;rounded=0;orthogonalLoop=1;jettySize=auto;html=1;entryX=0.5;entryY=0;entryDx=0;entryDy=0;" edge="1" parent="1" source="Q7UmeQ9gQ45WxCr1bM-f-4" target="Q7UmeQ9gQ45WxCr1bM-f-1">
          <mxGeometry relative="1" as="geometry" />
        </mxCell>
        <mxCell id="Q7UmeQ9gQ45WxCr1bM-f-4" value="账号3" style="ellipse;whiteSpace=wrap;html=1;fillColor=#ffe6cc;strokeColor=#d79b00;" vertex="1" parent="1">
          <mxGeometry x="400" y="330" width="120" height="80" as="geometry" />
        </mxCell>
        <mxCell id="Q7UmeQ9gQ45WxCr1bM-f-11" value="绑定" style="edgeStyle=none;rounded=0;orthogonalLoop=1;jettySize=auto;html=1;entryX=0.5;entryY=0;entryDx=0;entryDy=0;" edge="1" parent="1" source="Q7UmeQ9gQ45WxCr1bM-f-5" target="Q7UmeQ9gQ45WxCr1bM-f-1">
          <mxGeometry relative="1" as="geometry" />
        </mxCell>
        <mxCell id="Q7UmeQ9gQ45WxCr1bM-f-5" value="账号4" style="ellipse;whiteSpace=wrap;html=1;fillColor=#ffe6cc;strokeColor=#d79b00;" vertex="1" parent="1">
          <mxGeometry x="560" y="330" width="120" height="80" as="geometry" />
        </mxCell>
        <mxCell id="Q7UmeQ9gQ45WxCr1bM-f-15" value="审核结果" style="edgeStyle=orthogonalEdgeStyle;rounded=0;orthogonalLoop=1;jettySize=auto;html=1;entryX=1;entryY=0.5;entryDx=0;entryDy=0;" edge="1" parent="1" source="Q7UmeQ9gQ45WxCr1bM-f-12" target="Q7UmeQ9gQ45WxCr1bM-f-1">
          <mxGeometry relative="1" as="geometry">
            <Array as="points">
              <mxPoint x="570" y="730" />
              <mxPoint x="570" y="585" />
            </Array>
          </mxGeometry>
        </mxCell>
        <mxCell id="Q7UmeQ9gQ45WxCr1bM-f-12" value="审核" style="whiteSpace=wrap;html=1;rounded=1;fillColor=#fff2cc;strokeColor=#d6b656;" vertex="1" parent="1">
          <mxGeometry x="310" y="695" width="120" height="60" as="geometry" />
        </mxCell>
      </root>
    </mxGraphModel>
  </diagram>
</mxfile>
